<?xml version="1.0" encoding="UTF-8"?>
<svg width="48px" height="48px" viewBox="0 0 48 48" version="1.1" xmlns="http://www.w3.org/2000/svg" xmlns:xlink="http://www.w3.org/1999/xlink">
    <!-- Generator: Sketch 57.1 (83088) - https://sketch.com -->
    <title>icon-sangwa</title>
    <desc>Created with Sketch.</desc>
    <defs>
        <linearGradient x1="0%" y1="32.0262129%" x2="100%" y2="32.0262129%" id="linearGradient-1">
            <stop stop-color="#0D7BD2" offset="0%"></stop>
            <stop stop-color="#135ABC" offset="100%"></stop>
        </linearGradient>
    </defs>
    <g id="icon-sangwa" stroke="none" stroke-width="1" fill="none" fill-rule="evenodd">
        <path d="M29.1445963,5.36778172 C33.900708,8.07835345 35.5589458,14.1312963 32.848374,18.887408 L32.792728,18.9837857 L32.792728,18.9837857 L18.7794237,42.942895 C15.9752733,47.7372636 9.83522923,49.3823637 5.00967954,46.6322183 C0.253567846,43.9216466 -1.40466993,37.8687037 1.3059018,33.112592 C1.32426997,33.0803622 1.34281893,33.0482358 1.3615478,33.0162143 L15.3748522,9.05710501 C18.1790026,4.26273644 24.3190466,2.61763634 29.1445963,5.36778172 Z M37.9437847,27.91884 C39.3190005,27.91884 40.6225709,28.1744601 41.8545351,28.685708 C43.0864992,29.1969559 44.1465455,29.9070118 45.0347057,30.815897 C45.922866,31.7247822 46.6391134,32.789866 47.1834697,34.0111805 C47.727826,35.2324949 48,36.5247966 48,37.8881244 C48,39.2514522 47.727826,40.5295528 47.1834697,41.7224646 C46.6391134,42.9153764 45.922866,43.9662591 45.0347057,44.8751443 C44.1465455,45.7840294 43.0864992,46.4940853 41.8545351,47.0053332 C40.6225709,47.5165812 39.3190005,47.7722013 37.9437847,47.7722013 C36.5112682,47.7722013 35.1790479,47.5165812 33.9470837,47.0053332 C32.7151196,46.4940853 31.6550733,45.7840294 30.7669131,44.8751443 C29.8787529,43.9662591 29.1768303,42.9011752 28.6611244,41.6798608 C28.1454185,40.4585463 27.8875694,39.1378424 27.8875694,37.7177093 C27.8875694,36.3543815 28.1454185,35.090482 28.6611244,33.9259729 C29.1768303,32.7614638 29.8787529,31.7247822 30.7669131,30.815897 C31.6550733,29.9070118 32.7151196,29.1969559 33.9470837,28.685708 C35.1790479,28.1744601 36.5112682,27.91884 37.9437847,27.91884 Z" id="sangwa" fill="url(#linearGradient-1)" fill-rule="nonzero"></path>
    </g>
</svg>